<?xml version="1.0" encoding="UTF-8"?>
<svg id="Camada_1" data-name="Camada 1" xmlns="http://www.w3.org/2000/svg" viewBox="0 0 196.77 176.67">
  <defs>
    <style>
      .cls-1, .cls-2, .cls-3, .cls-4, .cls-5, .cls-6 {
        font-family: GoudySans-Bold, GoudySans;
      }

      .cls-1, .cls-3 {
        fill: #fdac24;
      }

      .cls-1, .cls-3, .cls-4, .cls-6 {
        font-size: 19.53px;
      }

      .cls-7, .cls-5 {
        fill: #fff;
      }

      .cls-2, .cls-5 {
        font-size: 39.06px;
      }

      .cls-8 {
        fill: #727375;
      }

      .cls-3, .cls-6 {
        letter-spacing: 0em;
      }

      .cls-4, .cls-6 {
        fill: #e39a1f;
      }
    </style>
  </defs>
  <g>
    <g>
      <path class="cls-8" d="M22.56,153.44c.22,.44,1.12,1.13,1.96,1.47,3.2,1.35,9.34,2.14,19.94,2.58,5.13,.21,17.05,.29,30.91,.2,7.59-.04,14.35-.12,15.01-.15,2.91-.16,4.87-.46,8.91-1.36,3.5-.78,4.17-.84,8.79-.76,13.31,.24,21.62,.83,36.06,2.54,9.73,1.16,12.2,1.39,15.85,1.48,3.79,.11,7-.2,10-.96,1.87-.47,2.49-.77,3.52-1.68,1.33-1.17,1.88-2.33,1.89-4,.02-1.62-.66-3.15-1.88-4.22s-2.68-1.56-6.35-2.06c-1.38-.18-2.21-.22-4.66-.22-3.42-.01-4.86,.09-11.96,.88-11.1,1.22-15.43,1.62-22.18,2.04-5.91,.36-16.32,.68-21.88,.68-3.2,0-3.61-.11-8.83-2.22-5.39-2.19-7.79-2.97-11.03-3.6-3.52-.69-5.84-.82-12.76-.69-21.99,.38-40.54,2.66-47.75,5.89-2.83,1.26-4.19,2.85-3.54,4.15Z"/>
      <path class="cls-8" d="M109.75,10.35c-.72,.77-.94,1.07-1.32,1.75-3.28,6-.71,21.18,6.1,36.16,3.53,7.76,6.48,12.59,9.67,15.81,3.47,3.49,6.52,5.06,12.5,6.46,3.2,.75,3.85,.98,4.65,1.64l.62,.51,2.74,5.09c8.79,16.35,13.56,26.13,22.95,47.11,4.44,9.89,5.23,11.65,6.89,15.08,3.58,7.46,6.52,12.38,9.98,16.7,2.03,2.54,3.3,3.67,4.89,4.35,1.72,.75,3.26,.69,4.66-.14,2.3-1.37,3.2-4.3,2.39-7.77-.2-.88-.98-3-1.85-5.06-1.1-2.63-2.78-5.92-4.71-9.26-2.84-4.88-4.64-7.71-12.78-20.05-11.81-17.9-17.36-26.84-25.83-41.58-5.09-8.89-4.82-8.23-4.44-10.34,.15-.77,.58-2.26,1.05-3.5,2.11-5.65,2.42-9.31,1.22-14.22-.82-3.34-1.59-5.11-4.18-9.75-4.72-8.48-10.01-15.65-15.64-21.17-6.59-6.46-12.75-9.67-17.11-8.92-.73,.13-2.14,.75-2.46,1.1Z"/>
      <path class="cls-8" d="M83.9,.06c-1.07,.56-5.04,6.16-10.74,15.15-7.61,11.96-16.03,26.5-18,31.05-1.38,3.17-1.87,5.86-1.78,9.8,.14,5.56,0,7.29-.74,9.66-.31,.98-.52,1.42-1.64,3.42-.71,1.27-1.92,3.26-2.69,4.45s-3.97,6.05-7.1,10.84c-16.33,24.88-22.51,34.75-29.75,47.45-6.3,11.09-10.27,19.34-11.17,23.28-1.11,4.86,1.14,8.22,5.07,7.57,2.16-.36,3.93-1.75,6.37-4.99,2.81-3.74,4.66-6.69,7.7-12.31,2.98-5.53,3.73-7.06,9.8-20.2,7.86-17,11.38-24.24,17.65-36.34,3.02-5.81,9.3-17.35,10.14-18.62,1.47-2.22,2.66-3.21,5.81-4.9,5.06-2.71,7.85-5.16,10.68-9.39,1.3-1.94,5.84-9.95,8.25-14.56,5.56-10.62,11.82-23.62,14.51-30.08,2.33-5.61,1.1-4.02-5.41,6.95-7.77,13.12-9.44,15.88-11.54,19.13-2.85,4.43-4.34,6.28-4.66,5.77-.19-.28,0-1.05,.67-2.66,1.26-3.11,3.36-7.24,9.86-19.38,4.53-8.46,6.43-12.13,7.23-13.98,1.04-2.38,.57-2.32-1.06,.15-.81,1.21-4.61,7.56-9.17,15.33-7.69,13.08-10.92,17.89-11.99,17.81-.32-.03-.28-.84,.1-1.92,1.02-2.91,2.88-6.58,9.55-18.81,7.21-13.22,9.02-16.76,8.66-16.98-.38-.23-2.92,3.65-8.94,13.71-10.03,16.74-13.3,21.64-14.08,21.16-.33-.2,.34-2.25,1.62-5.02,1.64-3.5,3.92-7.84,11.08-21,4.27-7.86,5.84-10.89,5.9-11.46,.02-.17,0-.19-.18-.09Z"/>
    </g>
    <g>
      <path class="cls-7" d="M22.56,153.44c.22,.44,1.12,1.13,1.96,1.47,3.2,1.35,9.34,2.14,19.94,2.58,5.13,.21,17.05,.29,30.91,.2,7.59-.04,14.35-.12,15.01-.15,2.91-.16,4.87-.46,8.91-1.36,3.5-.78,4.17-.84,8.79-.76,13.31,.24,21.62,.83,36.06,2.54,9.73,1.16,12.2,1.39,15.85,1.48,3.79,.11,7-.2,10-.96,1.87-.47,2.49-.77,3.52-1.68,1.33-1.17,1.88-2.33,1.89-4,.02-1.62-.66-3.15-1.88-4.22s-2.68-1.56-6.35-2.06c-1.38-.18-2.21-.22-4.66-.22-3.42-.01-4.86,.09-11.96,.88-11.1,1.22-15.43,1.62-22.18,2.04-5.91,.36-16.32,.68-21.88,.68-3.2,0-3.61-.11-8.83-2.22-5.39-2.19-7.79-2.97-11.03-3.6-3.52-.69-5.84-.82-12.76-.69-21.99,.38-40.54,2.66-47.75,5.89-2.83,1.26-4.19,2.85-3.54,4.15Z"/>
      <path class="cls-7" d="M109.75,10.35c-.72,.77-.94,1.07-1.32,1.75-3.28,6-.71,21.18,6.1,36.16,3.53,7.76,6.48,12.59,9.67,15.81,3.47,3.49,6.52,5.06,12.5,6.46,3.2,.75,3.85,.98,4.65,1.64l.62,.51,2.74,5.09c8.79,16.35,13.56,26.13,22.95,47.11,4.44,9.89,5.23,11.65,6.89,15.08,3.58,7.46,6.52,12.38,9.98,16.7,2.03,2.54,3.3,3.67,4.89,4.35,1.72,.75,3.26,.69,4.66-.14,2.3-1.37,3.2-4.3,2.39-7.77-.2-.88-.98-3-1.85-5.06-1.1-2.63-2.78-5.92-4.71-9.26-2.84-4.88-4.64-7.71-12.78-20.05-11.81-17.9-17.36-26.84-25.83-41.58-5.09-8.89-4.82-8.23-4.44-10.34,.15-.77,.58-2.26,1.05-3.5,2.11-5.65,2.42-9.31,1.22-14.22-.82-3.34-1.59-5.11-4.18-9.75-4.72-8.48-10.01-15.65-15.64-21.17-6.59-6.46-12.75-9.67-17.11-8.92-.73,.13-2.14,.75-2.46,1.1Z"/>
      <path class="cls-7" d="M83.9,.06c-1.07,.56-5.04,6.16-10.74,15.15-7.61,11.96-16.03,26.5-18,31.05-1.38,3.17-1.87,5.86-1.78,9.8,.14,5.56,0,7.29-.74,9.66-.31,.98-.52,1.42-1.64,3.42-.71,1.27-1.92,3.26-2.69,4.45s-3.97,6.05-7.1,10.84c-16.33,24.88-22.51,34.75-29.75,47.45-6.3,11.09-10.27,19.34-11.17,23.28-1.11,4.86,1.14,8.22,5.07,7.57,2.16-.36,3.93-1.75,6.37-4.99,2.81-3.74,4.66-6.69,7.7-12.31,2.98-5.53,3.73-7.06,9.8-20.2,7.86-17,11.38-24.24,17.65-36.34,3.02-5.81,9.3-17.35,10.14-18.62,1.47-2.22,2.66-3.21,5.81-4.9,5.06-2.71,7.85-5.16,10.68-9.39,1.3-1.94,5.84-9.95,8.25-14.56,5.56-10.62,11.82-23.62,14.51-30.08,2.33-5.61,1.1-4.02-5.41,6.95-7.77,13.12-9.44,15.88-11.54,19.13-2.85,4.43-4.34,6.28-4.66,5.77-.19-.28,0-1.05,.67-2.66,1.26-3.11,3.36-7.24,9.86-19.38,4.53-8.46,6.43-12.13,7.23-13.98,1.04-2.38,.57-2.32-1.06,.15-.81,1.21-4.61,7.56-9.17,15.33-7.69,13.08-10.92,17.89-11.99,17.81-.32-.03-.28-.84,.1-1.92,1.02-2.91,2.88-6.58,9.55-18.81,7.21-13.22,9.02-16.76,8.66-16.98-.38-.23-2.92,3.65-8.94,13.71-10.03,16.74-13.3,21.64-14.08,21.16-.33-.2,.34-2.25,1.62-5.02,1.64-3.5,3.92-7.84,11.08-21,4.27-7.86,5.84-10.89,5.9-11.46,.02-.17,0-.19-.18-.09Z"/>
    </g>
  </g>
  <g>
    <text class="cls-2" transform="translate(41.7 119.1)"><tspan x="0" y="0">A</tspan></text>
    <text class="cls-2" transform="translate(68.88 119.1) scale(.7)"><tspan x="0" y="0">LCIDES</tspan></text>
    <text class="cls-5" transform="translate(41.7 119.1)"><tspan x="0" y="0">A</tspan></text>
    <text class="cls-5" transform="translate(68.88 119.1) scale(.7)"><tspan x="0" y="0">LCIDES</tspan></text>
  </g>
  <g>
    <text class="cls-4" transform="translate(94.08 136.26)"><tspan x="0" y="0">G</tspan></text>
    <text class="cls-6" transform="translate(106.62 136.26) scale(.7)"><tspan x="0" y="0">OURMET</tspan></text>
    <text class="cls-1" transform="translate(94.08 136.26)"><tspan x="0" y="0">G</tspan></text>
    <text class="cls-3" transform="translate(106.62 136.26) scale(.7)"><tspan x="0" y="0">OURMET</tspan></text>
  </g>
</svg>